<svg xmlns="http://www.w3.org/2000/svg" viewBox="0 0 1200 700" width="100%" height="100%">
  <defs>
    <linearGradient id="skyGrad" x1="0" y1="0" x2="0" y2="1">
      <stop offset="0%" stop-color="#e0f2fe" />
      <stop offset="100%" stop-color="#f8fafc" />
    </linearGradient>
    <linearGradient id="lawnGrad" x1="0" y1="0" x2="1" y2="1">
      <stop offset="0%" stop-color="#dcfce7" />
      <stop offset="100%" stop-color="#bbf7d0" />
    </linearGradient>
    <linearGradient id="roofGrad" x1="0" y1="0" x2="1" y2="1">
      <stop offset="0%" stop-color="#ea580c" />
      <stop offset="100%" stop-color="#9a3412" />
    </linearGradient>
  </defs>
  <rect width="1200" height="700" fill="url(#skyGrad)" />
  <polygon points="600,100 1100,350 600,600 100,350" fill="url(#lawnGrad)" stroke="#15803d" stroke-width="2" />
  <polygon points="450,280 600,360 600,480 450,400" fill="#f1f5f9" stroke="#334155" stroke-width="2" />
  <polygon points="600,360 750,280 750,400 600,480" fill="#cbd5e1" stroke="#334155" stroke-width="2" />
  <polygon points="600,240 750,280 600,360 450,280" fill="url(#roofGrad)" stroke="#7c2d12" stroke-width="2" />
  <polygon points="700,240 740,250 740,275 700,265" fill="#38bdf8" stroke="#0284c7" stroke-width="1.5" />
  <polygon points="700,240 720,230 760,240 740,250" fill="#7dd3fc" stroke="#0284c7" stroke-width="1.5" />
  <text x="600" y="560" text-anchor="middle" font-family="sans-serif" font-size="16" font-weight="bold" fill="#0f172a">3D AXONOMETRIC VASTU SITE LAYOUT (4aTsIrZKr1M)</text>
  <text x="600" y="585" text-anchor="middle" font-family="sans-serif" font-size="13" fill="#475569">Wide North/East Setbacks • Solid South/West Elevations • Elevated SW Roof Core</text>
</svg>